<svg
        xmlns="http://www.w3.org/2000/svg"
        xmlns:xlink="http://www.w3.org/1999/xlink"
        viewBox="130 10 100 100"
        preserveAspectRatio="xMidYMid meet"
        version="1.0"
>
    <defs>
        <g />
        <clipPath id="c6abc855f2">
            <path
                    d="M 143 19.113281 L 220.242188 19.113281 L 220.242188 100.796875 L 143 100.796875 Z M 143 19.113281 "
                    clip-rule="nonzero"
            />
        </clipPath>
        <clipPath id="39a4a7b9ac">
            <path
                    d="M 143.066406 42.5625 C 143.242188 39.472656 143.417969 38.589844 143.507812 37.796875 C 143.597656 37.089844 143.417969 36.386719 143.507812 35.589844 C 143.597656 34.796875 143.773438 34.003906 143.949219 33.210938 C 144.125 32.414062 144.125 31.621094 144.390625 30.917969 C 144.742188 30.035156 145.890625 28.359375 145.976562 28.359375 C 145.976562 28.359375 146.066406 28.179688 146.152344 28.09375 C 146.152344 28.003906 146.242188 27.917969 146.242188 27.828125 C 146.242188 27.828125 146.417969 27.742188 146.507812 27.652344 C 146.59375 27.5625 146.773438 27.476562 146.773438 27.476562 C 146.773438 27.476562 146.949219 27.386719 147.035156 27.300781 C 147.035156 27.300781 147.125 27.300781 147.125 27.210938 C 147.210938 27.210938 147.125 27.121094 147.125 27.035156 C 147.125 26.945312 147.125 26.769531 147.125 26.683594 C 147.210938 26.683594 147.125 26.683594 147.125 26.683594 C 147.210938 26.683594 147.210938 26.503906 147.210938 26.417969 C 147.300781 26.328125 147.300781 26.152344 147.300781 26.152344 C 147.300781 26.152344 147.390625 25.976562 147.476562 25.886719 C 147.476562 25.710938 147.652344 25.535156 147.652344 25.535156 C 147.652344 25.535156 147.742188 25.445312 147.832031 25.359375 C 147.917969 25.269531 148.007812 25.09375 148.007812 25.09375 C 148.007812 25.09375 148.625 24.742188 148.800781 24.476562 C 148.890625 24.300781 148.800781 24.125 148.976562 24.035156 C 149.152344 23.769531 149.859375 23.59375 150.035156 23.417969 C 150.210938 23.417969 150.125 23.328125 150.300781 23.328125 C 150.566406 23.066406 151.625 22.449219 152.328125 22.007812 C 153.035156 21.476562 153.652344 20.683594 154.445312 20.242188 C 155.0625 19.800781 155.769531 19.535156 156.5625 19.359375 C 157.269531 19.269531 157.976562 19.269531 158.859375 19.359375 C 159.738281 19.449219 160.976562 19.449219 161.945312 19.800781 C 162.828125 20.066406 164.0625 20.949219 164.589844 21.125 C 164.769531 21.210938 164.855469 21.210938 165.03125 21.210938 C 165.386719 21.210938 166.179688 20.683594 166.707031 20.769531 C 167.238281 20.769531 168.207031 21.652344 168.296875 21.652344 C 168.386719 21.652344 168.386719 21.652344 168.386719 21.652344 C 168.386719 21.652344 168.5625 21.742188 168.648438 21.828125 C 168.738281 21.828125 168.914062 21.917969 169.003906 21.917969 C 169.003906 21.917969 169.179688 22.007812 169.265625 22.09375 C 169.355469 22.183594 169.445312 22.269531 169.53125 22.269531 C 169.53125 22.269531 169.53125 22.359375 169.53125 22.359375 C 169.796875 22.535156 170.679688 22.886719 171.296875 23.328125 C 172.003906 23.769531 172.796875 24.476562 173.414062 24.828125 C 173.855469 25.09375 174.296875 25.359375 174.558594 25.359375 C 174.738281 25.445312 174.738281 25.269531 174.914062 25.269531 C 175.355469 25.359375 176.941406 25.976562 177.296875 26.769531 C 177.734375 27.5625 177.472656 29.679688 176.941406 30.296875 C 176.589844 30.738281 175.265625 30.476562 175.179688 30.652344 C 175.089844 30.738281 175.179688 30.828125 175.179688 30.917969 C 175 31.355469 173.855469 32.503906 173.148438 32.855469 C 172.621094 33.121094 171.914062 33.035156 171.648438 33.121094 C 171.5625 33.121094 171.5625 33.210938 171.472656 33.210938 C 171.207031 33.386719 169.621094 34.09375 169.179688 34.003906 C 169.003906 33.914062 168.914062 33.652344 168.828125 33.652344 C 168.738281 33.652344 168.738281 33.828125 168.648438 33.914062 C 168.648438 34.003906 168.648438 34.003906 168.5625 34.003906 C 168.472656 34.269531 167.679688 35.503906 167.503906 35.945312 C 167.414062 36.121094 167.414062 36.210938 167.328125 36.386719 C 167.328125 36.738281 167.238281 37.355469 167.328125 37.886719 C 167.414062 38.503906 167.765625 39.386719 168.03125 40.089844 C 168.207031 40.886719 168.386719 41.589844 168.5625 42.382812 C 168.828125 43.179688 169.089844 44.0625 169.265625 44.855469 C 169.53125 45.824219 170.0625 47.148438 170.0625 47.765625 C 170.0625 48.03125 169.972656 48.296875 169.972656 48.296875 C 170.0625 48.382812 170.148438 48.296875 170.148438 48.296875 C 170.238281 48.296875 170.414062 48.382812 170.503906 48.382812 C 170.589844 48.382812 170.765625 48.472656 170.765625 48.472656 C 170.765625 48.472656 170.945312 48.558594 171.03125 48.558594 C 171.121094 48.648438 171.296875 48.734375 171.382812 48.734375 C 171.382812 48.734375 171.472656 48.824219 171.5625 48.914062 C 171.648438 48.914062 171.824219 49.089844 171.824219 49.089844 C 171.824219 49.089844 171.914062 49.265625 172.003906 49.355469 C 172.089844 49.441406 172.179688 49.53125 172.179688 49.53125 C 172.179688 49.53125 172.265625 49.792969 172.265625 49.882812 C 172.355469 49.972656 172.441406 50.148438 172.441406 50.148438 C 172.441406 50.148438 172.441406 50.324219 172.441406 50.414062 C 172.53125 50.5 172.441406 50.589844 172.53125 50.675781 C 172.707031 50.941406 173.941406 51.382812 174.648438 51.824219 C 175.355469 52.351562 176.058594 53.234375 176.765625 53.589844 C 177.472656 54.027344 178.175781 54.027344 178.882812 54.292969 C 179.675781 54.558594 180.382812 55 181 55.351562 C 181.707031 55.792969 182.324219 56.234375 183.027344 56.585938 C 183.910156 57.027344 185.5 57.644531 185.765625 57.644531 C 185.851562 57.734375 185.941406 57.644531 185.941406 57.644531 C 185.941406 57.644531 186.117188 57.644531 186.207031 57.644531 C 186.292969 57.644531 186.558594 57.558594 186.558594 57.558594 C 186.558594 57.558594 186.734375 57.644531 186.824219 57.644531 C 186.910156 57.644531 187.175781 57.644531 187.175781 57.644531 C 187.175781 57.644531 187.175781 57.734375 187.265625 57.734375 C 187.351562 57.734375 187.441406 57.734375 187.441406 57.734375 C 187.527344 57.734375 188.941406 58.265625 189.734375 58.441406 C 190.527344 58.617188 191.5 58.441406 192.292969 58.703125 C 193.085938 58.882812 194.054688 59.585938 194.496094 59.761719 C 194.585938 59.851562 194.585938 59.761719 194.761719 59.851562 C 195.203125 59.941406 196.261719 60.382812 197.054688 60.644531 C 197.761719 61 198.378906 61.441406 199.085938 61.703125 C 199.789062 61.96875 200.496094 61.96875 201.203125 62.320312 C 201.996094 62.761719 202.964844 64.085938 203.320312 64.175781 C 203.40625 64.261719 203.496094 64.175781 203.496094 64.175781 C 203.496094 64.175781 203.671875 64.261719 203.847656 64.261719 C 203.9375 64.261719 204.113281 64.351562 204.113281 64.351562 C 204.113281 64.351562 204.289062 64.4375 204.464844 64.4375 C 204.554688 64.527344 204.730469 64.617188 204.730469 64.617188 C 204.730469 64.617188 205.964844 65.761719 206.496094 66.292969 C 207.023438 66.910156 207.464844 67.527344 207.90625 68.144531 C 208.4375 68.851562 209.054688 69.910156 209.316406 70.4375 C 209.40625 70.703125 209.496094 70.878906 209.582031 71.054688 C 209.582031 71.144531 209.671875 71.144531 209.671875 71.144531 C 209.757812 71.230469 209.847656 71.320312 209.9375 71.320312 C 209.9375 71.40625 210.023438 71.40625 210.023438 71.496094 C 210.023438 71.496094 210.113281 71.496094 210.113281 71.585938 C 210.199219 71.585938 210.199219 71.761719 210.289062 71.761719 C 210.289062 71.847656 210.464844 72.027344 210.464844 72.027344 C 210.464844 72.027344 211.699219 73.789062 212.054688 74.671875 C 212.40625 75.464844 212.40625 76.261719 212.582031 77.054688 C 212.757812 77.847656 213.113281 78.640625 213.199219 79.4375 C 213.289062 80.40625 212.847656 81.554688 212.933594 82.433594 C 213.023438 83.316406 213.550781 84.289062 213.550781 84.816406 C 213.550781 85.171875 213.375 85.433594 213.375 85.699219 C 213.375 85.875 213.464844 86.050781 213.464844 86.230469 C 213.464844 86.40625 213.199219 86.667969 213.199219 87.109375 C 213.199219 87.640625 213.640625 88.609375 213.992188 89.40625 C 214.523438 90.375 215.40625 91.34375 216.199219 92.140625 C 216.816406 92.84375 217.523438 93.285156 218.050781 93.992188 C 218.667969 94.519531 219.199219 95.050781 219.550781 95.84375 C 219.90625 96.726562 220.34375 98.226562 219.90625 98.933594 C 219.375 99.8125 216.816406 100.519531 215.667969 100.433594 C 214.789062 100.34375 214.257812 99.550781 213.550781 99.109375 C 212.757812 98.753906 211.613281 98.578125 210.90625 98.050781 C 210.289062 97.519531 209.757812 96.019531 209.671875 96.019531 C 209.582031 96.019531 209.582031 96.109375 209.582031 96.199219 C 209.40625 96.375 208.257812 97.257812 207.464844 97.785156 C 206.761719 98.316406 205.964844 98.753906 205.261719 99.195312 C 204.554688 99.636719 203.9375 100.078125 203.230469 100.34375 C 202.4375 100.609375 200.496094 100.609375 200.496094 100.609375 C 200.496094 100.609375 200.320312 100.609375 200.230469 100.609375 C 200.054688 100.609375 199.878906 100.609375 199.878906 100.609375 C 199.878906 100.609375 199.703125 100.609375 199.613281 100.609375 C 199.4375 100.519531 199.261719 100.519531 199.261719 100.519531 C 199.261719 100.519531 199.085938 100.433594 198.996094 100.34375 C 198.910156 100.34375 198.730469 100.253906 198.730469 100.167969 C 198.730469 100.167969 198.554688 100.078125 198.46875 99.992188 C 198.378906 99.902344 198.289062 99.8125 198.289062 99.8125 C 198.289062 99.8125 198.113281 99.636719 198.113281 99.550781 C 198.027344 99.460938 197.9375 99.285156 197.9375 99.285156 C 197.9375 99.285156 197.851562 99.109375 197.761719 99.019531 C 197.761719 98.933594 197.671875 98.667969 197.671875 98.667969 C 197.671875 98.667969 197.671875 98.492188 197.671875 98.402344 C 197.585938 98.316406 197.585938 98.050781 197.585938 98.050781 C 197.585938 98.050781 197.585938 97.875 197.671875 97.785156 C 197.671875 97.695312 197.671875 97.433594 197.671875 97.433594 C 197.671875 97.433594 197.761719 97.257812 197.761719 97.167969 C 197.851562 97.078125 197.851562 96.902344 197.9375 96.902344 C 197.9375 96.902344 198.027344 96.726562 198.113281 96.636719 C 198.113281 96.550781 198.203125 96.375 198.289062 96.375 C 198.289062 96.375 198.378906 96.199219 198.46875 96.199219 C 198.554688 96.109375 198.730469 95.933594 198.730469 95.933594 C 198.730469 95.933594 198.910156 95.84375 198.996094 95.84375 C 198.996094 95.84375 198.996094 95.84375 198.996094 95.757812 C 199.085938 95.667969 199.261719 94.875 199.4375 94.34375 C 199.703125 93.726562 200.230469 93.023438 200.761719 92.316406 C 201.289062 91.609375 201.820312 90.816406 202.527344 90.285156 C 203.144531 89.847656 204.464844 89.667969 204.90625 89.226562 C 205.082031 89.050781 205.171875 88.699219 205.082031 88.433594 C 204.996094 88.257812 204.464844 88.257812 204.113281 87.992188 C 203.671875 87.640625 203.40625 86.667969 202.964844 86.050781 C 202.527344 85.347656 201.820312 84.550781 201.554688 84.023438 C 201.378906 83.671875 201.378906 83.140625 201.203125 83.054688 C 201.113281 83.054688 200.9375 83.140625 200.9375 83.140625 C 200.9375 83.140625 200.761719 83.230469 200.671875 83.230469 C 200.496094 83.230469 200.40625 83.230469 200.320312 83.230469 C 200.144531 83.230469 200.054688 83.230469 199.878906 83.230469 C 199.347656 83.140625 198.378906 82.875 197.585938 82.699219 C 196.878906 82.523438 196.171875 82.257812 195.378906 82.171875 C 194.585938 82.082031 193.703125 81.90625 192.820312 81.90625 C 191.851562 81.996094 190.792969 82.257812 189.910156 82.433594 C 188.941406 82.613281 188.058594 82.875 187.265625 82.964844 C 186.46875 82.964844 185.585938 82.964844 184.96875 82.875 C 184.441406 82.789062 183.910156 82.523438 183.648438 82.523438 C 183.558594 82.433594 183.558594 82.433594 183.46875 82.433594 C 183.382812 82.433594 183.117188 82.347656 183.117188 82.347656 C 183.117188 82.347656 183.027344 82.347656 183.027344 82.347656 C 182.765625 82.257812 181.96875 82.433594 181.792969 82.699219 C 181.617188 83.140625 182.765625 85.082031 182.765625 85.082031 C 182.765625 85.082031 183.027344 85.171875 183.117188 85.171875 C 183.207031 85.171875 183.46875 85.257812 183.46875 85.257812 C 183.46875 85.257812 183.648438 85.257812 183.734375 85.347656 C 183.824219 85.347656 184 85.433594 184 85.433594 C 184 85.433594 184.175781 85.609375 184.265625 85.699219 C 184.351562 85.699219 184.527344 85.875 184.527344 85.875 C 184.527344 85.875 184.707031 86.050781 184.707031 86.140625 C 184.792969 86.230469 184.96875 86.316406 184.96875 86.40625 C 184.96875 86.40625 185.058594 86.582031 185.058594 86.667969 C 185.148438 86.757812 185.234375 86.933594 185.234375 86.933594 C 185.234375 86.933594 185.234375 87.199219 185.234375 87.289062 C 185.324219 87.375 185.324219 87.550781 185.324219 87.550781 C 185.324219 87.550781 185.324219 87.816406 185.324219 87.90625 C 185.324219 87.992188 185.324219 88.257812 185.324219 88.257812 C 185.324219 88.257812 185.234375 88.433594 185.234375 88.523438 C 185.148438 88.609375 185.148438 88.875 185.148438 88.875 C 185.148438 88.875 185.058594 89.050781 184.96875 89.140625 C 184.882812 89.226562 184.792969 89.40625 184.792969 89.40625 C 184.792969 89.40625 184.617188 89.582031 184.617188 89.667969 C 184.527344 89.667969 184.351562 89.847656 184.351562 89.847656 C 184.351562 89.847656 184.175781 89.933594 184.085938 90.023438 C 184 90.109375 183.824219 90.199219 183.824219 90.199219 C 183.824219 90.199219 183.648438 90.285156 183.46875 90.285156 C 183.382812 90.375 183.207031 90.375 183.207031 90.375 C 183.207031 90.375 182.941406 90.375 182.851562 90.464844 C 182.765625 90.464844 182.589844 90.464844 182.589844 90.464844 C 182.589844 90.464844 182.324219 90.464844 182.148438 90.464844 C 181.617188 90.375 180.382812 90.285156 179.589844 90.199219 C 178.792969 90.109375 177.296875 89.847656 177.296875 89.847656 C 177.296875 89.847656 177.117188 89.757812 176.941406 89.757812 C 176.855469 89.757812 176.675781 89.667969 176.675781 89.667969 C 176.675781 89.667969 176.414062 89.492188 176.414062 89.492188 C 176.414062 89.492188 176.324219 89.582031 176.324219 89.582031 C 176.324219 89.582031 176.148438 89.667969 176.058594 89.667969 C 175.972656 89.667969 175.796875 89.757812 175.796875 89.757812 C 175.707031 89.757812 175.53125 89.757812 175.441406 89.847656 C 175.355469 89.847656 175.089844 89.847656 175.089844 89.847656 C 175.089844 89.847656 174.914062 89.847656 174.824219 89.757812 C 174.738281 89.757812 174.472656 89.757812 174.472656 89.757812 C 174.472656 89.757812 172.882812 89.140625 172.089844 88.789062 C 171.382812 88.523438 170.589844 88.347656 169.886719 87.992188 C 169.179688 87.640625 168.472656 87.109375 168.03125 86.582031 C 167.679688 86.140625 167.679688 85.609375 167.328125 85.171875 C 166.886719 84.640625 166.089844 84.199219 165.386719 83.671875 C 164.769531 83.140625 164.0625 82.699219 163.621094 81.996094 C 163.179688 81.375 162.914062 80.40625 162.828125 79.789062 C 162.738281 79.347656 163.179688 78.730469 162.914062 78.554688 C 162.5625 78.289062 160.796875 79.347656 159.828125 79.257812 C 159.121094 79.171875 158.503906 78.730469 157.800781 78.289062 C 157.09375 77.847656 156.386719 77.140625 155.769531 76.523438 C 155.0625 75.90625 154.535156 75.203125 154.003906 74.496094 C 153.566406 73.878906 153.210938 73.347656 152.769531 72.554688 C 152.242188 71.761719 151.710938 70.613281 151.269531 69.644531 C 150.828125 68.851562 150.386719 67.96875 150.035156 67.171875 C 149.769531 66.46875 149.507812 65.761719 149.152344 65.054688 C 148.800781 64.261719 148.269531 63.46875 147.832031 62.675781 C 147.390625 61.878906 146.949219 61 146.59375 60.117188 C 146.332031 59.324219 146.066406 58.265625 146.066406 57.644531 C 146.066406 57.382812 146.242188 57.292969 146.242188 57.027344 C 146.152344 56.5 145.359375 55.617188 145.09375 54.910156 C 144.832031 54.207031 144.742188 53.5 144.65625 52.707031 C 144.476562 51.824219 144.214844 50.675781 144.035156 49.792969 C 143.949219 49 143.859375 48.296875 143.683594 47.5 C 143.597656 46.796875 143.242188 46 143.15625 45.207031 C 143.066406 44.324219 143.066406 42.5625 143.066406 42.5625 M 164.414062 67.703125 C 164.503906 67.878906 164.589844 67.878906 164.589844 67.878906 C 164.589844 67.792969 164.414062 67.703125 164.414062 67.703125 M 169.621094 61.175781 C 169.796875 61.527344 169.972656 61.617188 169.972656 61.527344 C 169.972656 61.527344 169.621094 61.175781 169.621094 61.175781 M 180.117188 73.613281 C 180.382812 73.613281 180.207031 73.613281 180.207031 73.613281 C 180.117188 73.613281 180.117188 73.613281 180.117188 73.613281 "
                    clip-rule="nonzero"
            />
        </clipPath>
        <clipPath id="be19518321">
            <path
                    d="M 144.542969 73.222656 L 168.640625 73.222656 L 168.640625 82.976562 L 144.542969 82.976562 Z M 144.542969 73.222656 "
                    clip-rule="nonzero"
            />
        </clipPath>
    </defs>

    <g clip-path="url(#c6abc855f2)">
        <g clip-path="url(#39a4a7b9ac)">
            <path
                    fill="#d9d9d9"
                    d="M 139.539062 15.832031 L 223.519531 15.832031 L 223.519531 104.078125 L 139.539062 104.078125 Z M 139.539062 15.832031 "
                    fill-opacity="1"
                    fill-rule="nonzero"
            />
        </g>
    </g>

    <g clip-path="url(#b584245f7c)">
        <path
                fill="#000000"
                d="M 152.84375 75.320312 C 154.355469 77.082031 156.050781 78.65625 157.953125 80.003906 C 154.058594 81.886719 149.035156 82.796875 145.777344 81.917969 C 144.863281 81.671875 144.539062 81.113281 144.472656 80.582031 C 144.414062 80.046875 144.582031 79.632812 145.15625 79.414062 C 148.097656 78.304688 150.921875 76.707031 152.84375 75.320312 Z M 159.015625 21.1875 C 160.105469 21.191406 161.195312 21.316406 162.28125 21.558594 C 165.261719 22.214844 167.394531 23.378906 169.515625 24.484375 C 171.339844 25.425781 173.382812 26.417969 175.636719 26.734375 C 175.929688 27.375 175.882812 28.222656 175.210938 29.441406 C 174.496094 30.761719 173.21875 31.925781 171.890625 32.285156 C 170.613281 32.628906 168.351562 33.019531 166.742188 34.710938 C 165.9375 35.554688 165.355469 36.742188 165.238281 38.214844 C 165.117188 39.691406 165.421875 41.421875 166.238281 43.542969 C 168.144531 48.507812 171.347656 54.117188 182.679688 57.644531 C 191.007812 60.238281 197.941406 61.523438 202.910156 65.3125 C 207.875 69.105469 211.222656 75.457031 212.292969 88.933594 C 212.328125 89.324219 212.550781 89.683594 212.894531 89.875 C 216.6875 92.0625 218.714844 95.425781 218.054688 100.011719 C 216.660156 99.566406 215.125 99.234375 213.675781 98.738281 C 211.628906 98.03125 210.089844 97.101562 209.632812 95.644531 C 209.28125 94.527344 207.699219 94.527344 207.347656 95.644531 C 206.882812 97.105469 205.339844 98.03125 203.292969 98.738281 C 201.855469 99.234375 200.433594 99.5 199.046875 99.941406 C 198.773438 97.917969 198.703125 96.121094 199.464844 94.585938 C 200.417969 92.679688 202.070312 91.089844 204.171875 89.875 C 204.648438 89.605469 204.878906 89.054688 204.734375 88.523438 C 204.128906 86.265625 203.214844 84.351562 201.316406 83.164062 C 199.421875 81.976562 196.8125 81.550781 192.871094 81.550781 L 179.457031 81.550781 C 178.53125 80.804688 177.863281 79.972656 177.363281 79.070312 C 176.242188 77.023438 175.972656 74.5625 175.707031 72.246094 C 175.53125 70.636719 173.113281 70.921875 173.320312 72.53125 C 173.585938 74.804688 173.832031 77.625 175.265625 80.230469 C 176.703125 82.839844 178.996094 84.871094 183.679688 86.167969 C 185.660156 86.71875 184.902344 88.902344 183.300781 89.332031 C 180.871094 89.980469 177.6875 90.207031 174.753906 89.730469 C 171.8125 89.253906 169.152344 88.117188 167.644531 86.480469 C 164.054688 82.566406 163.664062 76.800781 165.464844 71.214844 C 165.734375 70.4375 165.152344 69.621094 164.324219 69.625 C 163.800781 69.625 163.339844 69.96875 163.179688 70.472656 C 162.191406 73.527344 161.789062 76.730469 162.160156 79.761719 C 155.667969 76.417969 151.300781 70.328125 148.476562 63.109375 C 145.375 55.183594 144.179688 45.960938 144.113281 37.960938 C 144.113281 31.511719 146.527344 27.003906 149.96875 24.269531 C 152.554688 22.222656 155.75 21.179688 159.015625 21.1875 Z M 159.019531 18.785156 C 157.757812 18.78125 156.503906 18.914062 155.28125 19.175781 C 152.828125 19.714844 150.5 20.785156 148.476562 22.386719 C 144.445312 25.582031 141.71875 30.90625 141.71875 37.964844 L 141.71875 37.972656 C 141.789062 46.199219 142.988281 55.667969 146.246094 63.980469 C 147.574219 67.382812 149.261719 70.589844 151.355469 73.433594 C 149.65625 74.648438 146.972656 76.148438 144.3125 77.160156 C 142.730469 77.761719 141.921875 79.375 142.089844 80.851562 C 142.261719 82.332031 143.34375 83.941406 145.152344 84.246094 C 151.335938 85.265625 156.316406 83.757812 160.203125 81.449219 C 161.03125 81.917969 161.898438 82.332031 162.796875 82.722656 C 163.421875 84.679688 164.417969 86.511719 165.882812 88.109375 C 167.9375 90.34375 171.078125 91.570312 174.367188 92.105469 C 177.660156 92.640625 181.121094 92.472656 183.960938 91.636719 C 186.226562 90.980469 187.394531 89.148438 187.34375 87.472656 C 187.292969 85.9375 186.429688 84.492188 184.976562 83.960938 L 192.863281 83.960938 C 196.621094 83.960938 198.789062 84.425781 200.035156 85.203125 C 201.132812 85.890625 201.621094 86.75 202.113281 88.339844 C 200.035156 89.605469 198.339844 91.453125 197.316406 93.507812 C 196.109375 95.925781 195.761719 98.84375 196.621094 102.027344 C 196.8125 102.765625 197.632812 103.136719 198.3125 102.796875 C 199.363281 102.269531 201.773438 101.808594 204.070312 101.011719 C 205.769531 100.425781 207.339844 99.769531 208.480469 98.3125 C 209.621094 99.769531 211.183594 100.425781 212.890625 101.011719 C 215.183594 101.804688 217.597656 102.269531 218.644531 102.796875 C 219.328125 103.136719 220.144531 102.765625 220.34375 102.027344 C 221.972656 95.957031 219.367188 90.730469 214.585938 88.105469 C 213.4375 74.644531 209.882812 67.609375 204.355469 63.398438 C 198.757812 59.128906 191.554688 57.890625 183.382812 55.351562 C 172.578125 51.992188 170.292969 47.4375 168.46875 42.683594 C 167.742188 40.789062 167.539062 39.390625 167.625 38.414062 C 167.699219 37.433594 168.015625 36.847656 168.46875 36.367188 C 169.386719 35.414062 171.09375 34.984375 172.503906 34.609375 C 174.65625 34.03125 176.328125 32.414062 177.316406 30.605469 C 178.308594 28.792969 178.722656 26.640625 177.632812 24.933594 C 177.421875 24.601562 177.070312 24.390625 176.679688 24.375 C 174.4375 24.265625 172.703125 23.429688 170.613281 22.347656 C 168.519531 21.261719 166.117188 19.945312 162.796875 19.207031 C 161.550781 18.929688 160.28125 18.792969 159.019531 18.785156 Z M 159.019531 18.785156 "
                fill-opacity="1"
                fill-rule="nonzero"
        />
    </g>
    <path
            fill="#000000"
            d="M 165.371094 26.625 C 165.371094 27.824219 164.429688 28.789062 163.273438 28.789062 C 162.117188 28.789062 161.179688 27.824219 161.179688 26.625 C 161.179688 25.425781 162.117188 24.457031 163.273438 24.457031 C 164.429688 24.457031 165.371094 25.425781 165.371094 26.625 Z M 165.371094 26.625 "
            fill-opacity="1"
            fill-rule="evenodd"
    />

</svg>
