<svg xmlns="http://www.w3.org/2000/svg" viewBox="0 0 2267.72 651.97">
    <path fill="#363635" d="m811.86,87.98h-112v346c0,32-24,32-42,32h-14v98h54c62.91.06,113.94-50.89,114-113.8,0-.07,0-.13,0-.2v-26h0V87.98Z"></path>
    <path fill="#363635" d="m1679.86,87.98c-50.14-.01-97.15,24.39-126,65.4-48.9-69.59-144.96-86.36-214.54-37.46-41.05,28.85-65.47,75.88-65.46,126.06v322h112V241.98h0c0-30.93,25.07-56,56-56h0c30.93,0,56,25.07,56,56h0v322h112V241.98h0c0-30.93,25.07-56,56-56h0c30.93,0,56,25.07,56,56h0v322h112V241.98c.06-85-68.8-153.94-153.8-154-.07,0-.13,0-.2,0Z"></path>
    <path fill="#363635" d="m2071.86,87.98c-108.2,0-196,87.8-196,196v280h112v-102.9c26.24,12.47,54.94,18.93,84,18.9,108.2,0,196-87.8,196-196s-87.8-196-196-196Zm0,280c-46.39,0-84-37.61-84-84s37.61-84,84-84,84,37.61,84,84-37.61,84-84,84h0Z"></path>
    <path fill="#ffb715" d="m1105.86,325.98v68c.06,38.6-31.2,69.94-69.8,70-.07,0-.13,0-.2,0h0c-38.6.06-69.94-31.2-70-69.8,0-.07,0-.13,0-.2v-68h-112v58c0,124,80.6,180,180,180h4c99.4,0,180-56,180-180v-58h-112Z"></path>
    <path fill="#363635" d="m1010.86,244.28h-63.8l35.9-35c18.8-18.5,30.3-33.7,30.3-58.1,0-36.4-23.9-63.2-62.1-63.2s-62,25.3-62,64.7v2.6h44.1v-4.1c0-13.2,5.6-22,17.6-22s17.7,9.1,17.7,21.7c0,10.9-7.7,21.8-18.8,32.8l-60.9,62.1v38.2h122v-39.7Z"></path>
    <path fill="#363635" d="m1122.36,283.98h44.1v-41.5h16.4v-39.6h-16.4v-114.9h-44.1l-79.3,116.3v38.2h79.3v41.5Zm-33.8-81.1l35.3-54.9v54.9h-35.3Z"></path>
    <circle fill="#ffb715" cx="153.86" cy="409.98" r="84"></circle>
    <path fill="#363635" d="m237.86,157.98c92.78,0,167.99,75.23,167.99,168.01,0,92.78-75.23,167.99-168.01,167.99-92.78,0-167.99-75.23-167.99-168.01,0-44.56,17.71-87.28,49.21-118.79,31.44-31.61,74.22-49.32,118.8-49.2m0-70C106.46,87.98-.14,194.58-.14,325.98s106.6,238,238,238,238-106.6,238-238-106.6-238-238-238Z"></path>
    <circle fill="#ffb715" cx="444.86" cy="118.98" r="31"></circle>
</svg>
